<svg version="1.1" id="Layer_1" xmlns="http://www.w3.org/2000/svg" xmlns:xlink="http://www.w3.org/1999/xlink" x="0px" y="0px"
	 width="100%" viewBox="0 0 921 664" enable-background="new 0 0 921 664" xml:space="preserve">
<!-- Provided company logo SVG -->
<path fill="#FFFFFF" opacity="1.000000" stroke="none" d="M495.000000,665.000000 C391.645233,665.000000 288.290466,665.000000 184.640533,664.627625 C187.257141,663.834900 190.249100,663.709045 193.066437,662.941833 C203.716263,660.041687 213.073593,655.659668 218.236481,644.673950 C221.693832,637.317261 220.773987,629.886169 220.974640,622.400818 C221.414185,606.001160 212.999115,595.597961 198.167969,591.095276 C180.103394,585.610962 161.701767,585.570801 143.583984,591.083496 C132.568039,594.435364 123.803642,601.070496 121.675262,613.048828 C120.409904,620.170166 120.697067,627.672668 121.089470,634.960510 C121.822258,648.570007 130.254089,656.377991 142.278214,660.941345 C146.433716,662.518433 150.754639,663.659668 155.000000,665.000000 C104.994637,665.000000 54.989262,665.007690 4.983946,664.958130 C3.655648,664.956787 2.327967,664.333313 1.468657,663.500000 C11.193539,663.000000 20.449762,663.000000 30.181107,663.000000 C30.181107,651.342224 30.181107,640.285400 30.181107,629.000000 C50.788967,629.000000 70.910103,629.026001 91.031097,628.985535 C97.850174,628.971802 103.886864,626.569458 108.641502,621.763733 C116.817459,613.500122 118.956444,603.650513 117.202522,592.094666 C115.302757,579.578003 102.645554,568.668762 90.876755,568.848083 C60.924019,569.304626 30.959688,569.000000 1.000000,569.000000 C1.000000,379.763123 1.000000,190.526215 1.000000,1.000000 C96.687904,1.000000 192.376099,1.000000 288.361176,1.371228 C287.170471,1.841873 285.646759,1.767225 284.200867,2.067451 C268.518951,5.323667 255.616074,13.159951 246.395691,26.299259 C237.889679,38.420525 234.084686,52.439213 236.337570,66.844025 C239.065353,84.285439 243.929672,101.393105 247.879623,118.642853 C251.903122,136.213730 256.494812,153.676895 259.833405,171.376678 C264.342316,195.281052 276.734497,212.218460 299.691284,220.549683 C300.302856,226.689453 296.871246,229.593109 291.810425,231.777832 C288.579834,233.172424 285.792542,235.607208 282.833557,237.615448 C265.964478,249.064331 257.114258,274.926758 261.588379,295.462280 C263.770020,305.475769 268.173279,314.123749 273.871582,322.275787 C278.787445,329.308380 282.398590,336.465088 281.082642,345.468781 C280.298645,350.833008 280.221558,356.312836 280.021484,361.747864 C279.302856,381.271576 278.375824,400.793884 278.077362,420.325134 C277.741302,442.316559 277.962219,464.317261 278.051849,486.313477 C278.062103,488.828400 278.785431,491.340454 279.140350,493.612122 C298.081329,493.612122 316.474213,493.612122 336.000000,493.612122 C336.000000,478.966034 335.876648,464.706665 336.041840,450.450623 C336.158844,440.352020 336.674164,430.258240 336.997162,420.161804 C337.669861,399.136627 338.475800,378.114319 338.946899,357.084564 C339.234192,344.259674 339.060913,331.422455 338.932373,318.592407 C338.913696,316.727142 338.399750,314.610687 337.414062,313.054382 C332.365051,305.082397 327.053009,297.277527 321.913086,289.362183 C320.720032,287.524872 319.840179,285.484161 318.278137,282.513916 C326.629059,280.203094 334.199554,277.982788 341.842041,276.046631 C345.633698,275.086029 349.092133,274.411133 349.371399,269.342865 C349.557098,265.973267 350.631683,262.651215 351.324310,259.311218 C355.548126,238.942566 360.019318,218.620636 363.872437,198.182159 C365.231720,190.971741 367.390411,185.608353 375.017029,182.829590 C384.458832,179.389465 393.503113,174.846176 402.672882,170.677704 C406.503296,168.936462 410.214569,166.933197 414.629425,164.724121 C413.339264,164.304382 412.912903,164.041214 412.489319,164.045624 C383.062866,164.351273 353.636627,164.677734 324.210449,165.008804 C323.715240,165.014374 323.143402,164.951477 322.738068,165.166763 C318.189819,167.582291 317.688904,163.887894 317.056305,161.159195 C313.096100,144.076248 309.276245,126.960716 305.424133,109.852768 C301.928558,94.328033 298.672485,78.744034 294.824341,63.307430 C293.736450,58.943390 295.576752,58.896694 298.568054,59.003387 C307.664642,59.327869 316.758911,59.728443 325.857300,59.985584 C339.617920,60.374493 353.383148,60.606644 367.142487,61.031937 C372.411163,61.194786 377.684631,61.553108 382.928680,62.089069 C394.823242,63.304726 406.705536,64.645332 418.583832,66.013390 C427.197479,67.005447 435.861664,67.757050 444.387115,69.270363 C457.186676,71.542358 469.899261,74.317467 482.622223,77.004539 C505.254028,81.784363 527.120422,88.981201 548.122620,98.641953 C568.333069,107.938477 586.527466,120.121170 601.466797,136.891434 C609.939514,146.402542 616.485107,157.034210 620.980896,168.867599 C626.896179,184.436966 629.925598,200.542068 627.938538,217.245605 C627.056152,224.662964 626.190125,232.199844 624.121338,239.335938 C618.414307,259.022217 606.767151,274.841278 591.382263,288.279724 C580.474976,297.807098 568.652039,305.846252 555.896912,312.509796 C533.334229,324.297058 509.529541,333.023712 484.825317,338.939758 C462.874695,344.196381 440.665070,348.372009 418.567413,353.013489 C415.064453,353.749237 413.544830,355.879578 412.930145,359.422119 C410.483215,373.525452 407.722412,387.573975 405.170898,401.659668 C404.321411,406.349274 403.750885,411.089386 403.042908,415.873383 C411.093201,414.488617 418.495392,413.393005 425.821869,411.920624 C445.264099,408.013275 464.841705,404.613159 484.059357,399.791321 C518.572144,391.131866 552.419250,380.469208 584.044189,363.588165 C599.949829,355.097900 615.179932,345.591797 628.580200,333.664825 C647.211243,317.082092 662.965820,298.167633 673.164124,274.892151 C681.960205,254.816849 686.091248,233.888824 686.845947,212.240997 C687.130432,204.082230 685.645691,195.864456 685.009521,187.670334 C683.684570,170.604523 678.823181,154.432556 671.911682,138.929840 C659.874268,111.929482 640.987976,90.241165 617.721497,72.433212 C594.666931,54.787441 568.835571,42.084919 541.308472,33.117756 C524.828613,27.749321 508.035583,23.231014 491.185303,19.147709 C478.553162,16.086580 465.639709,14.113403 452.787201,12.057614 C442.297028,10.379682 431.730072,9.125677 421.164124,7.991377 C407.298309,6.502817 393.411011,5.181892 379.511475,4.052874 C371.772369,3.424248 363.982544,3.438405 356.232147,2.916824 C354.453125,2.797101 352.742249,1.665776 351.000000,1.000002 C541.261780,1.000000 731.523560,1.000000 922.000000,1.000000 C922.000000,196.688065 922.000000,392.376190 921.531372,588.532166 C911.472168,589.000000 901.881714,589.000000 891.579224,589.000000 C891.579224,601.270264 891.579224,612.939575 891.579224,626.020081 C881.763245,614.080322 873.001587,603.322510 864.087769,592.692200 C862.795288,591.150757 860.798096,589.209595 859.086182,589.168823 C846.503723,588.869812 833.910828,589.007385 821.309021,589.007385 C821.309021,613.959717 821.309021,638.331909 821.309021,662.656921 C831.007568,662.656921 840.393433,662.656921 850.311890,662.656921 C850.311890,648.372620 850.311890,634.426270 850.311890,619.785156 C854.565308,624.479797 858.278442,628.459778 861.859863,632.554993 C870.182251,642.071228 878.365417,651.710999 886.818542,661.108704 C887.909485,662.321655 890.256348,662.888611 892.035583,662.918701 C902.021301,663.087585 912.011414,663.000000 922.000000,663.000000 C921.669617,663.666626 921.458313,664.783936 920.984863,664.909058 C919.897644,665.196228 918.682617,665.000000 917.519470,665.000000 C871.324890,665.000000 825.130249,665.000000 778.631592,664.633484 C782.895325,663.163330 787.645874,662.534241 791.994019,660.860107 C801.877991,657.054688 809.840515,650.858215 811.945435,639.815674 C813.012207,634.219360 812.684998,628.358459 813.001404,622.617859 C813.914795,606.042847 804.599976,595.449097 789.997375,591.000427 C773.704529,586.036804 757.171753,585.989075 740.632019,589.765259 C732.102234,591.712708 724.354553,594.959595 718.838135,602.427795 C710.342041,613.929993 712.506897,626.789368 714.074951,639.374512 C714.596741,643.562805 717.382996,647.781860 720.020752,651.327087 C725.158813,658.232910 733.041626,660.801819 740.978394,663.059509 C741.772034,663.285217 742.331726,664.333496 743.000000,665.000000 C707.311890,665.000000 671.623779,665.000000 635.645996,664.624146 C643.523865,663.561829 651.425842,662.076416 658.786560,658.092468 C667.540039,653.354736 670.836243,645.847290 669.897827,636.475464 C669.135254,628.858521 663.438049,624.473328 656.866882,622.639221 C648.450439,620.290039 639.643250,619.174805 630.934692,618.085938 C622.472473,617.027832 613.912598,616.771118 605.419434,615.923340 C603.897278,615.771423 602.491272,614.456604 601.031616,613.678650 C602.371216,612.130981 603.478333,609.566467 605.087646,609.198547 C616.643127,606.556885 628.296204,604.307861 638.627197,613.033020 C639.302185,613.603088 640.385559,613.951111 641.282043,613.957275 C650.752869,614.022827 660.224365,613.997864 670.291321,613.997864 C668.993896,606.991516 667.207336,600.685974 661.799133,596.474915 C654.366821,590.687805 645.417786,588.531067 636.216125,588.093262 C627.212280,587.664856 618.132935,587.480530 609.159790,588.157715 C601.424072,588.741516 593.646667,590.156067 586.156067,592.191040 C579.506836,593.997437 573.336670,598.217896 571.317688,604.867371 C566.898926,619.420288 571.255554,626.978638 585.697449,630.660583 C597.312195,633.621826 609.674988,633.631897 621.698486,635.015564 C626.385803,635.555115 631.068115,636.180664 635.718384,636.969421 C636.846924,637.160828 637.839600,638.153198 638.894775,638.777283 C637.971863,639.989258 637.236084,641.443298 636.071899,642.343262 C634.966980,643.197449 633.443542,643.819458 632.051941,643.939636 C626.483582,644.420776 620.898743,644.778687 615.312744,644.968689 C609.691284,645.160034 604.699951,643.602356 600.958069,639.049866 C600.526245,638.524536 599.673523,638.055908 599.012695,638.051575 C589.397705,637.987854 579.782104,638.007874 569.637695,638.007874 C570.098938,640.552368 570.326965,642.479370 570.805664,644.341980 C573.754700,655.817749 582.523376,660.394470 592.969971,663.037170 C594.388062,663.395935 595.660278,664.331482 597.000000,665.000000 C574.978577,665.000000 552.957092,665.000000 530.619995,664.640869 C532.202087,663.852783 534.106567,663.451294 535.996521,662.990295 C551.299866,659.258423 563.855469,650.521240 563.985474,630.453369 C564.064270,618.292664 564.007690,606.131042 563.990662,593.969788 C563.988464,592.376038 563.859680,590.782410 563.798401,589.390991 C553.570496,589.390991 543.844849,589.390991 534.000000,589.390991 C534.000000,602.772827 533.892822,615.765259 534.050903,628.754456 C534.117493,634.224426 531.479126,637.401672 526.588440,638.967102 C519.281555,641.305908 511.901703,641.589233 504.314606,640.072510 C497.038239,638.617859 492.687012,634.271729 492.902405,626.793213 C493.260620,614.355347 493.000000,601.899597 493.000000,589.270508 C482.817627,589.270508 473.095612,589.270508 463.005310,589.270508 C463.005310,604.329224 462.220734,619.175110 463.246033,633.895020 C464.113586,646.350586 470.540009,655.915588 483.249634,660.121765 C487.264832,661.450500 491.088623,663.357544 495.000000,665.000000 M445.011078,181.624664 C440.792969,205.612015 436.574860,229.599380 432.171387,254.640823 C437.663116,252.979752 442.525238,251.380478 447.457428,250.039032 C471.521240,243.494324 494.912964,235.163498 516.694885,222.908127 C521.895691,219.981964 526.620850,215.847534 530.784790,211.518646 C538.929749,203.051041 537.105042,191.436478 530.005066,185.317520 C522.727234,179.045349 514.316345,175.287674 505.305603,173.146667 C493.136566,170.255203 480.776733,168.071487 468.412415,166.135651 C461.801056,165.100525 455.008514,165.223022 448.434357,164.831207 C447.223175,170.575775 446.150909,175.661453 445.011078,181.624664 M365.000000,638.500000 C365.000000,646.590149 365.000000,654.680298 365.000000,662.626465 C375.397064,662.626465 385.120483,662.626465 395.153870,662.626465 C395.153870,656.313416 395.153870,650.371460 395.153870,643.947876 C412.858246,643.947876 430.248016,643.947876 447.687561,643.947876 C447.687561,636.062927 447.687561,628.673889 447.687561,620.810181 C429.982483,620.810181 412.584625,620.810181 395.201294,620.810181 C395.201294,618.045410 395.201294,615.767212 395.201294,613.005920 C415.119965,613.005920 434.845703,613.005920 454.719788,613.005920 C454.719788,604.796692 454.719788,597.075012 454.719788,589.305542 C424.726898,589.305542 395.015167,589.305542 365.000000,589.305542 C365.000000,605.572815 365.000000,621.536438 365.000000,638.500000 M259.000000,624.494995 C259.000000,612.743713 259.000000,600.992432 259.000000,589.368042 C248.611832,589.368042 238.890045,589.368042 229.391541,589.368042 C229.391541,614.115906 229.391541,638.494141 229.391541,662.765503 C258.373932,662.765503 286.964264,662.765503 315.726990,662.765503 C315.726990,654.809143 315.726990,647.088623 315.726990,638.883606 C296.741180,638.883606 278.022003,638.883606 259.000000,638.883606 C259.000000,634.099243 259.000000,629.795410 259.000000,624.494995 M324.000000,646.498352 C324.000000,651.926697 324.000000,657.355103 324.000000,662.616028 C334.076965,662.616028 343.471527,662.616028 352.749146,662.616028 C352.749146,637.958252 352.749146,613.685181 352.749146,589.295654 C343.104492,589.295654 333.712921,589.295654 324.000000,589.295654 C324.000000,608.225891 324.000000,626.862305 324.000000,646.498352 M705.000000,600.518433 C705.000000,596.755310 705.000000,592.992188 705.000000,589.378662 C694.934509,589.378662 685.540039,589.378662 676.246338,589.378662 C676.246338,614.031555 676.246338,638.304993 676.246338,662.708557 C685.886292,662.708557 695.277954,662.708557 705.000000,662.708557 C705.000000,642.116577 705.000000,621.814209 705.000000,600.518433 M743.859192,567.630249 C742.981018,569.265991 740.929993,571.611267 741.419128,572.419861 C744.151062,576.935974 747.497437,581.080383 750.651917,585.376404 C763.249451,578.583862 775.220825,572.129028 787.377380,565.574280 C782.278870,558.477417 777.394958,551.979553 772.873169,545.238770 C771.041382,542.508057 769.898010,542.575378 767.695984,544.735229 C760.008606,552.275269 752.160706,559.651611 743.859192,567.630249 z"/>
<path fill="#126FCC" opacity="1.000000" stroke="none" d="M350.562500,1.000002 C352.742249,1.665776 354.453125,2.797101 356.232147,2.916824 C363.982544,3.438405 371.772369,3.424248 379.511475,4.052874 C393.411011,5.181892 407.298309,6.502817 421.164124,7.991377 C431.730072,9.125677 442.297028,10.379682 452.787201,12.057614 C465.639709,14.113403 478.553162,16.086580 491.185303,19.147709 C508.035583,23.231014 524.828613,27.749321 541.308472,33.117756 C568.835571,42.084919 594.666931,54.787441 617.721497,72.433212 C640.987976,90.241165 659.874268,111.929482 671.911682,138.929840 C678.823181,154.432556 683.684570,170.604523 685.009521,187.670334 C685.645691,195.864456 687.130432,204.082230 686.845947,212.240997 C686.091248,233.888824 681.960205,254.816849 673.164124,274.892151 C662.965820,298.167633 647.211243,317.082092 628.580200,333.664825 C615.179932,345.591797 599.949829,355.097900 584.044189,363.588165 C552.419250,380.469208 518.572144,391.131866 484.059357,399.791321 C464.841705,404.613159 445.264099,408.013275 425.821869,411.920624 C418.495392,413.393005 411.093201,414.488617 403.042908,415.873383 C403.750885,411.089386 404.321411,406.349274 405.170898,401.659668 C407.722412,387.573975 410.483215,373.525452 412.930145,359.422119 C413.544830,355.879578 415.064453,353.749237 418.567413,353.013489 C440.665070,348.372009 462.874695,344.196381 484.825317,338.939758 C509.529541,333.023712 533.334229,324.297058 555.896912,312.509796 C568.652039,305.846252 580.474976,297.807098 591.382263,288.279724 C606.767151,274.841278 618.414307,259.022217 624.121338,239.335938 C626.190125,232.199844 627.056152,224.662964 627.938538,217.245605 C629.925598,200.542068 626.896179,184.436966 620.980896,168.867599 C616.485107,157.034210 609.939514,146.402542 601.466797,136.891434 C586.527466,120.121170 568.333069,107.938477 548.122620,98.641953 C527.120422,88.981201 505.254028,81.784363 482.622223,77.004539 C469.899261,74.317467 457.186676,71.542358 444.387115,69.270363 C435.861664,67.757050 427.197479,67.005447 418.583832,66.013390 C406.705536,64.645332 394.823242,63.304726 382.928680,62.089069 C377.684631,61.553108 372.411163,61.194786 367.142487,61.031937 C353.383148,60.606644 339.617920,60.374493 325.857300,59.985584 C316.758911,59.728443 307.664642,59.327869 298.568054,59.003387 C295.576752,58.896694 293.736450,58.943390 294.824341,63.307430 C298.672485,78.744034 301.928558,94.328033 305.424133,109.852768 C309.276245,126.960716 313.096100,144.076248 317.056305,161.159195 C317.688904,163.887894 318.189819,167.582291 322.738068,165.166763 C323.143402,164.951477 323.715240,165.014374 324.210449,165.008804 C353.636627,164.677734 383.062866,164.351273 412.489319,164.045624 C412.912903,164.041214 413.339264,164.304382 414.629425,164.724121 C410.214569,166.933197 406.503296,168.936462 402.672882,170.677704 C393.503113,174.846176 384.458832,179.389465 375.017029,182.829590 C367.390411,185.608353 365.231720,190.971741 363.872437,198.182159 C360.019318,218.620636 355.548126,238.942566 351.324310,259.311218 C350.631683,262.651215 349.557098,265.973267 349.371399,269.342865 C349.092133,274.411133 345.633698,275.086029 341.842041,276.046631 C334.199554,277.982788 326.629059,280.203094 318.278137,282.513916 C319.840179,285.484161 320.720032,287.524872 321.913086,289.362183 C327.053009,297.277527 332.365051,305.082397 337.414062,313.054382 C338.399750,314.610687 338.913696,316.727142 338.932373,318.592407 C339.060913,331.422455 339.234192,344.259674 338.946899,357.084564 C338.475800,378.114319 337.669861,399.136627 336.997162,420.161804 C336.674164,430.258240 336.158844,440.352020 336.041840,450.450623 C335.876648,464.706665 336.000000,478.966034 336.000000,493.612122 C316.474213,493.612122 298.081329,493.612122 279.140350,493.612122 C278.785431,491.340454 278.062103,488.828400 278.051849,486.313477 C277.962219,464.317261 277.741302,442.316559 278.077362,420.325134 C278.375824,400.793884 279.302856,381.271576 280.021484,361.747864 C280.221558,356.312836 280.298645,350.833008 281.082642,345.468781 C282.398590,336.465088 278.787445,329.308380 273.871582,322.275787 C268.173279,314.123749 263.770020,305.475769 261.588379,295.462280 C257.114258,274.926758 265.964478,249.064331 282.833557,237.615448 C285.792542,235.607208 288.579834,233.172424 291.810425,231.777832 C296.871246,229.593109 300.302856,226.689453 299.691284,220.549683 C276.734497,212.218460 264.342316,195.281052 259.833405,171.376678 C256.494812,153.676895 251.903122,136.213730 247.879623,118.642853 C243.929672,101.393105 239.065353,84.285439 236.337570,66.844025 C234.084686,52.439213 237.889679,38.420525 246.395691,26.299259 C255.616074,13.159951 268.518951,5.323667 284.200867,2.067451 C285.646759,1.767225 287.170471,1.841873 288.829041,1.371228 C301.687561,1.000000 314.375122,1.000000 327.728149,1.387815 C333.595734,1.517087 338.797852,1.258544 344.000000,1.000000 C346.041656,1.000000 348.083344,1.000000 350.562500,1.000002 z"/>
</svg>

